<svg width="1208" height="240" viewBox="0 0 1208 240" fill="none" xmlns="http://www.w3.org/2000/svg">
<path d="M829.128 76.5H378.372L428.515 37.5H778.985L829.128 76.5Z" fill="url(#paint0_linear_269_5)" stroke="#5C5C5C" stroke-width="3"/>
<path d="M487 204L435.5 151V134H772V151L720.5 204H487Z" fill="url(#paint1_linear_269_5)" stroke="#5C5C5C" stroke-width="3"/>
<path d="M71.4372 149.5L28.3486 75.5H1179.15L1136.06 149.5H71.4372Z" fill="url(#paint2_linear_269_5)" stroke="url(#paint3_linear_269_5)" stroke-width="5"/>
<path d="M126 161.5H428.856L445.006 178.5H126V161.5Z" fill="url(#paint4_linear_269_5)" stroke="#5C5C5C" stroke-width="3"/>
<path d="M1081.5 161.5H778.644L762.494 178.5H1081.5V161.5Z" fill="url(#paint5_linear_269_5)" stroke="#5C5C5C" stroke-width="3"/>
<path d="M449.5 78H763.5L732.5 147H477.5L449.5 78Z" fill="url(#paint6_linear_269_5)"/>
<defs>
<linearGradient id="paint0_linear_269_5" x1="612.5" y1="72.5" x2="612.5" y2="41.5" gradientUnits="userSpaceOnUse">
<stop stop-color="#3F3D3D"/>
<stop offset="1" stop-color="#4D4D4D"/>
</linearGradient>
<linearGradient id="paint1_linear_269_5" x1="688" y1="134" x2="688" y2="204" gradientUnits="userSpaceOnUse">
<stop stop-color="#4B4B4B"/>
<stop offset="1" stop-color="#323232"/>
</linearGradient>
<linearGradient id="paint2_linear_269_5" x1="1150" y1="113" x2="59" y2="119" gradientUnits="userSpaceOnUse">
<stop stop-color="#FF0000"/>
<stop offset="1" stop-color="#000DFF"/>
</linearGradient>
<linearGradient id="paint3_linear_269_5" x1="24" y1="112.5" x2="1183.5" y2="112.5" gradientUnits="userSpaceOnUse">
<stop stop-color="#9B6FF3"/>
<stop offset="1" stop-color="#F36F6F"/>
</linearGradient>
<linearGradient id="paint4_linear_269_5" x1="486.5" y1="200.5" x2="484.5" y2="152" gradientUnits="userSpaceOnUse">
<stop stop-color="#393939"/>
<stop offset="1" stop-color="#4D4949"/>
</linearGradient>
<linearGradient id="paint5_linear_269_5" x1="721" y1="200.5" x2="723" y2="152" gradientUnits="userSpaceOnUse">
<stop stop-color="#393939"/>
<stop offset="1" stop-color="#4D4949"/>
</linearGradient>
<linearGradient id="paint6_linear_269_5" x1="610.297" y1="78" x2="608.315" y2="146.976" gradientUnits="userSpaceOnUse">
<stop stop-color="white"/>
<stop offset="1" stop-color="#D8D8D8"/>
</linearGradient>
</defs>
</svg>
